# xmcd CD database file
#
# Track frame offsets:
#	151
#	18493
#	46975
#	65843
#	80716
#	103738
#	128510
#	145604
#	163598
#	189092
#	209270
#	230750
#	250031
#	269546
#	298592
#	317439
#
# Disc length: 4456 seconds
#
# Revision: 0
# Processed by: cddbd v1.5.2PL0 Copyright (c) Steve Scherf et al.
# Submitted via: CDex 1.51
#
DISCID=e2116610
DTITLE=Dick Lee - Swing 2005
DYEAR=2005
DGENRE=Jazz
TTITLE0=Limehouse Blues
TTITLE1=Moten Swing
TTITLE2=Minor Swing
TTITLE3=Nuages
TTITLE4=One Note Samba
TTITLE5=Jersey Bounce
TTITLE6=Honeysuckle
TTITLE7=Melodie au Crepuscule
TTITLE8=Try A Little Tenderness
TTITLE9=Moonglow
TTITLE10=Troublant Bolero
TTITLE11=Stompin' At Decca
TTITLE12=Paper Moon
TTITLE13=Caravan
TTITLE14=Sweet Georgia Brown
TTITLE15=Babik
EXTD=YEAR: 2005
EXTT0=
EXTT1=
EXTT2=
EXTT3=
EXTT4=
EXTT5=
EXTT6=
EXTT7=
EXTT8=
EXTT9=
EXTT10=
EXTT11=
EXTT12=
EXTT13=
EXTT14=
EXTT15=
PLAYORDER=
